<svg width="5641" height="1256" viewBox="0 0 5641 1256" fill="none" xmlns="http://www.w3.org/2000/svg">
<g clip-path="url(#clip0_100_6)">
<rect width="5641" height="1256" fill="white"/>
<path d="M524 101L922.372 923H125.628L524 101Z" fill="#C91515"/>
<path d="M733.448 121.548L787.973 1033.37L51.5296 729.308L733.448 121.548Z" fill="black"/>
<path d="M1078.32 876H1004.45L1218.09 294.182H1290.82L1504.45 876H1430.59L1256.73 386.227H1252.18L1078.32 876ZM1105.59 648.727H1403.32V711.227H1105.59V648.727ZM2058.64 585.091C2058.64 646.455 2047.57 699.485 2025.41 744.182C2003.25 788.879 1972.85 823.348 1934.21 847.591C1895.58 871.833 1851.45 883.955 1801.83 883.955C1752.21 883.955 1708.08 871.833 1669.44 847.591C1630.8 823.348 1600.41 788.879 1578.25 744.182C1556.09 699.485 1545.01 646.455 1545.01 585.091C1545.01 523.727 1556.09 470.697 1578.25 426C1600.41 381.303 1630.8 346.833 1669.44 322.591C1708.08 298.348 1752.21 286.227 1801.83 286.227C1851.45 286.227 1895.58 298.348 1934.21 322.591C1972.85 346.833 2003.25 381.303 2025.41 426C2047.57 470.697 2058.64 523.727 2058.64 585.091ZM1990.46 585.091C1990.46 534.712 1982.04 492.193 1965.18 457.534C1948.51 422.875 1925.88 396.644 1897.28 378.841C1868.87 361.038 1837.05 352.136 1801.83 352.136C1766.6 352.136 1734.69 361.038 1706.09 378.841C1677.68 396.644 1655.05 422.875 1638.19 457.534C1621.52 492.193 1613.19 534.712 1613.19 585.091C1613.19 635.47 1621.52 677.989 1638.19 712.648C1655.05 747.307 1677.68 773.538 1706.09 791.341C1734.69 809.144 1766.6 818.045 1801.83 818.045C1837.05 818.045 1868.87 809.144 1897.28 791.341C1925.88 773.538 1948.51 747.307 1965.18 712.648C1982.04 677.989 1990.46 635.47 1990.46 585.091ZM2638.47 294.182V876H2570.29L2253.25 419.182H2247.57V876H2177.11V294.182H2245.29L2563.47 752.136H2569.16V294.182H2638.47ZM2779.45 876V294.182H3130.59V356.682H2849.91V553.273H3112.41V615.773H2849.91V813.5H3135.14V876H2779.45ZM3800.76 439.636C3797.35 410.848 3783.53 388.5 3759.28 372.591C3735.04 356.682 3705.31 348.727 3670.08 348.727C3644.32 348.727 3621.78 352.894 3602.47 361.227C3583.34 369.561 3568.38 381.019 3557.58 395.602C3546.97 410.186 3541.67 426.758 3541.67 445.318C3541.67 460.848 3545.36 474.201 3552.75 485.375C3560.33 496.36 3569.98 505.545 3581.73 512.932C3593.47 520.129 3605.78 526.095 3618.66 530.83C3631.54 535.375 3643.38 539.068 3654.17 541.909L3713.26 557.818C3728.41 561.795 3745.27 567.288 3763.83 574.295C3782.58 581.303 3800.48 590.867 3817.52 602.989C3834.76 614.92 3848.96 630.261 3860.14 649.011C3871.31 667.761 3876.9 690.773 3876.9 718.045C3876.9 749.485 3868.66 777.894 3852.18 803.273C3835.89 828.652 3812.03 848.822 3780.59 863.784C3749.34 878.746 3711.37 886.227 3666.67 886.227C3625 886.227 3588.92 879.504 3558.43 866.057C3528.13 852.61 3504.27 833.86 3486.84 809.807C3469.61 785.754 3459.85 757.818 3457.58 726H3530.31C3532.2 747.97 3539.59 766.152 3552.47 780.545C3565.53 794.75 3582.01 805.356 3601.9 812.364C3621.97 819.182 3643.56 822.591 3666.67 822.591C3693.56 822.591 3717.71 818.235 3739.11 809.523C3760.52 800.621 3777.47 788.311 3789.97 772.591C3802.47 756.682 3808.72 738.121 3808.72 716.909C3808.72 697.591 3803.32 681.871 3792.52 669.75C3781.73 657.629 3767.52 647.78 3749.91 640.205C3732.3 632.629 3713.26 626 3692.81 620.318L3621.22 599.864C3575.76 586.795 3539.78 568.14 3513.26 543.898C3486.75 519.655 3473.49 487.932 3473.49 448.727C3473.49 416.151 3482.3 387.742 3499.91 363.5C3517.71 339.068 3541.58 320.129 3571.5 306.682C3601.61 293.045 3635.23 286.227 3672.35 286.227C3709.85 286.227 3743.19 292.951 3772.35 306.398C3801.52 319.655 3824.63 337.837 3841.67 360.943C3858.91 384.049 3868 410.28 3868.94 439.636H3800.76ZM3992.74 876V294.182H4063.19V553.273H4373.42V294.182H4443.87V876H4373.42V615.773H4063.19V876H3992.74ZM5075.83 585.091C5075.83 646.455 5064.75 699.485 5042.59 744.182C5020.43 788.879 4990.04 823.348 4951.4 847.591C4912.76 871.833 4868.64 883.955 4819.01 883.955C4769.39 883.955 4725.26 871.833 4686.63 847.591C4647.99 823.348 4617.59 788.879 4595.43 744.182C4573.28 699.485 4562.2 646.455 4562.2 585.091C4562.2 523.727 4573.28 470.697 4595.43 426C4617.59 381.303 4647.99 346.833 4686.63 322.591C4725.26 298.348 4769.39 286.227 4819.01 286.227C4868.64 286.227 4912.76 298.348 4951.4 322.591C4990.04 346.833 5020.43 381.303 5042.59 426C5064.75 470.697 5075.83 523.727 5075.83 585.091ZM5007.65 585.091C5007.65 534.712 4999.22 492.193 4982.37 457.534C4965.7 422.875 4943.07 396.644 4914.47 378.841C4886.06 361.038 4854.24 352.136 4819.01 352.136C4783.79 352.136 4751.87 361.038 4723.28 378.841C4694.87 396.644 4672.23 422.875 4655.38 457.534C4638.71 492.193 4630.38 534.712 4630.38 585.091C4630.38 635.47 4638.71 677.989 4655.38 712.648C4672.23 747.307 4694.87 773.538 4723.28 791.341C4751.87 809.144 4783.79 818.045 4819.01 818.045C4854.24 818.045 4886.06 809.144 4914.47 791.341C4943.07 773.538 4965.7 747.307 4982.37 712.648C4999.22 677.989 5007.65 635.47 5007.65 585.091ZM5194.3 876V294.182H5390.89C5436.53 294.182 5473.84 302.42 5502.82 318.898C5531.99 335.186 5553.58 357.25 5567.59 385.091C5581.61 412.932 5588.62 443.992 5588.62 478.273C5588.62 512.553 5581.61 543.708 5567.59 571.739C5553.77 599.769 5532.37 622.117 5503.39 638.784C5474.41 655.261 5437.29 663.5 5392.03 663.5H5251.12V601H5389.75C5421 601 5446.1 595.602 5465.04 584.807C5483.98 574.011 5497.71 559.428 5506.23 541.057C5514.94 522.496 5519.3 501.568 5519.3 478.273C5519.3 454.977 5514.94 434.144 5506.23 415.773C5497.71 397.402 5483.88 383.008 5464.75 372.591C5445.62 361.985 5420.25 356.682 5388.62 356.682H5264.75V876H5194.3Z" fill="url(#paint0_linear_100_6)"/>
</g>
<defs>
<linearGradient id="paint0_linear_100_6" x1="984" y1="553" x2="5704" y2="553" gradientUnits="userSpaceOnUse">
<stop/>
<stop offset="0.320551"/>
<stop offset="1" stop-color="#C91515"/>
</linearGradient>
<clipPath id="clip0_100_6">
<rect width="5641" height="1256" fill="white"/>
</clipPath>
</defs>
</svg>
